<?xml version="1.0" encoding="UTF-8" standalone="no"?>
<!DOCTYPE svg PUBLIC "-//W3C//DTD SVG 1.1//EN"
 "http://www.w3.org/Graphics/SVG/1.1/DTD/svg11.dtd">
<!-- Generated by graphviz version 2.47.0 (20210316.0004)
 -->
<!-- Title: dependencies Pages: 1 -->
<svg width="6724pt" height="284pt"
 viewBox="0.00 0.00 6724.00 284.00" xmlns="http://www.w3.org/2000/svg" xmlns:xlink="http://www.w3.org/1999/xlink">
<g id="graph0" class="graph" transform="scale(1 1) rotate(0) translate(4 280)">
<title>dependencies</title>
<polygon fill="white" stroke="transparent" points="-4,4 -4,-280 6720,-280 6720,4 -4,4"/>
<text text-anchor="start" x="3337.01" y="-42.4" font-family="Times-12" font-weight="bold" font-size="14.00">Legend</text>
<polygon fill="#ffffb3" stroke="transparent" points="3124,-10 3124,-30 3144,-30 3144,-10 3124,-10"/>
<text text-anchor="start" x="3147.63" y="-15.4" font-family="Times-12" font-size="14.00"> &#160;Declarations</text>
<polygon fill="#8dd3c7" stroke="transparent" points="3237,-10 3237,-30 3257,-30 3257,-10 3237,-10"/>
<text text-anchor="start" x="3260.73" y="-15.4" font-family="Times-12" font-size="14.00"> &#160;Module</text>
<polygon fill="#80b1d3" stroke="transparent" points="3323,-10 3323,-30 3343,-30 3343,-10 3323,-10"/>
<text text-anchor="start" x="3346.78" y="-15.4" font-family="Times-12" font-size="14.00"> &#160;Bootstrap</text>
<polygon fill="#fdb462" stroke="transparent" points="3420,-10 3420,-30 3440,-30 3440,-10 3420,-10"/>
<text text-anchor="start" x="3443.67" y="-15.4" font-family="Times-12" font-size="14.00"> &#160;Providers</text>
<polygon fill="#fb8072" stroke="transparent" points="3516,-10 3516,-30 3536,-30 3536,-10 3516,-10"/>
<text text-anchor="start" x="3539.73" y="-15.4" font-family="Times-12" font-size="14.00"> &#160;Exports</text>
<g id="clust1" class="cluster">
<title>cluster_AppModule</title>
<polygon fill="none" stroke="black" stroke-dasharray="1,5" points="8,-70 8,-268 4760,-268 4760,-70 8,-70"/>
</g>
<g id="clust2" class="cluster">
<title>cluster_AppModule_declarations</title>
<polygon fill="none" stroke="black" points="1067,-78 1067,-130 4752,-130 4752,-78 1067,-78"/>
</g>
<g id="clust26" class="cluster">
<title>cluster_AppModule_imports</title>
<polygon fill="none" stroke="black" points="915,-78 915,-130 1059,-130 1059,-78 915,-78"/>
</g>
<g id="clust28" class="cluster">
<title>cluster_AppModule_bootstrap</title>
<polygon fill="none" stroke="black" points="2248,-208 2248,-260 2372,-260 2372,-208 2248,-208"/>
</g>
<g id="clust29" class="cluster">
<title>cluster_AppModule_providers</title>
<polygon fill="none" stroke="black" points="16,-78 16,-130 907,-130 907,-78 16,-78"/>
</g>
<g id="clust36" class="cluster">
<title>cluster_AuthenticationModule</title>
<polygon fill="none" stroke="black" stroke-dasharray="1,5" points="4768,-70 4768,-195 6708,-195 6708,-70 4768,-70"/>
</g>
<g id="clust37" class="cluster">
<title>cluster_AuthenticationModule_declarations</title>
<polygon fill="none" stroke="black" points="4988,-78 4988,-130 6700,-130 6700,-78 4988,-78"/>
</g>
<g id="clust47" class="cluster">
<title>cluster_AuthenticationModule_imports</title>
<polygon fill="none" stroke="black" points="4776,-78 4776,-130 4980,-130 4980,-78 4776,-78"/>
</g>
<!-- AboutUsComponent -->
<g id="node1" class="node">
<title>AboutUsComponent</title>
<polygon fill="#ffffb3" stroke="black" points="4743.88,-122 4612.12,-122 4612.12,-86 4743.88,-86 4743.88,-122"/>
<text text-anchor="middle" x="4678" y="-99.8" font-family="Times,serif" font-size="14.00">AboutUsComponent</text>
</g>
<!-- AppModule -->
<g id="node24" class="node">
<title>AppModule</title>
<polygon fill="#8dd3c7" stroke="black" points="2351.66,-187 2348.66,-191 2327.66,-191 2324.66,-187 2268.34,-187 2268.34,-151 2351.66,-151 2351.66,-187"/>
<text text-anchor="middle" x="2310" y="-164.8" font-family="Times,serif" font-size="14.00">AppModule</text>
</g>
<!-- AboutUsComponent&#45;&gt;AppModule -->
<g id="edge1" class="edge">
<title>AboutUsComponent&#45;&gt;AppModule</title>
<path fill="none" stroke="black" d="M4678,-122.2C4678,-146.36 4678,-186 4678,-186 4678,-186 2361.85,-186 2361.85,-186"/>
<polygon fill="black" stroke="black" points="2361.85,-182.5 2351.85,-186 2361.85,-189.5 2361.85,-182.5"/>
</g>
<!-- AdminComponent -->
<g id="node2" class="node">
<title>AdminComponent</title>
<polygon fill="#ffffb3" stroke="black" points="4594.22,-122 4473.78,-122 4473.78,-86 4594.22,-86 4594.22,-122"/>
<text text-anchor="middle" x="4534" y="-99.8" font-family="Times,serif" font-size="14.00">AdminComponent</text>
</g>
<!-- AdminComponent&#45;&gt;AppModule -->
<g id="edge2" class="edge">
<title>AdminComponent&#45;&gt;AppModule</title>
<path fill="none" stroke="black" d="M4534,-122.15C4534,-145.76 4534,-184 4534,-184 4534,-184 2361.95,-184 2361.95,-184"/>
<polygon fill="black" stroke="black" points="2361.95,-180.5 2351.95,-184 2361.95,-187.5 2361.95,-180.5"/>
</g>
<!-- AdminStatisticsComponent -->
<g id="node3" class="node">
<title>AdminStatisticsComponent</title>
<polygon fill="#ffffb3" stroke="black" points="4456.27,-122 4285.73,-122 4285.73,-86 4456.27,-86 4456.27,-122"/>
<text text-anchor="middle" x="4371" y="-99.8" font-family="Times,serif" font-size="14.00">AdminStatisticsComponent</text>
</g>
<!-- AdminStatisticsComponent&#45;&gt;AppModule -->
<g id="edge3" class="edge">
<title>AdminStatisticsComponent&#45;&gt;AppModule</title>
<path fill="none" stroke="black" d="M4371,-122.09C4371,-145.13 4371,-182 4371,-182 4371,-182 2362.1,-182 2362.1,-182"/>
<polygon fill="black" stroke="black" points="2362.1,-178.5 2352.1,-182 2362.1,-185.5 2362.1,-178.5"/>
</g>
<!-- AllMoviesPageComponent -->
<g id="node4" class="node">
<title>AllMoviesPageComponent</title>
<polygon fill="#ffffb3" stroke="black" points="4267.43,-122 4098.57,-122 4098.57,-86 4267.43,-86 4267.43,-122"/>
<text text-anchor="middle" x="4183" y="-99.8" font-family="Times,serif" font-size="14.00">AllMoviesPageComponent</text>
</g>
<!-- AllMoviesPageComponent&#45;&gt;AppModule -->
<g id="edge4" class="edge">
<title>AllMoviesPageComponent&#45;&gt;AppModule</title>
<path fill="none" stroke="black" d="M4183,-122.25C4183,-145.02 4183,-181 4183,-181 4183,-181 2361.75,-181 2361.75,-181"/>
<polygon fill="black" stroke="black" points="2361.75,-177.5 2351.75,-181 2361.75,-184.5 2361.75,-177.5"/>
</g>
<!-- AllSeriesPageComponent -->
<g id="node5" class="node">
<title>AllSeriesPageComponent</title>
<polygon fill="#ffffb3" stroke="black" points="4080.14,-122 3919.86,-122 3919.86,-86 4080.14,-86 4080.14,-122"/>
<text text-anchor="middle" x="4000" y="-99.8" font-family="Times,serif" font-size="14.00">AllSeriesPageComponent</text>
</g>
<!-- AllSeriesPageComponent&#45;&gt;AppModule -->
<g id="edge5" class="edge">
<title>AllSeriesPageComponent&#45;&gt;AppModule</title>
<path fill="none" stroke="black" d="M4000,-122.16C4000,-144.35 4000,-179 4000,-179 4000,-179 2361.78,-179 2361.78,-179"/>
<polygon fill="black" stroke="black" points="2361.78,-175.5 2351.78,-179 2361.78,-182.5 2361.78,-175.5"/>
</g>
<!-- AppComponent -->
<g id="node6" class="node">
<title>AppComponent</title>
<polygon fill="#ffffb3" stroke="black" points="3901.94,-122 3796.06,-122 3796.06,-86 3901.94,-86 3901.94,-122"/>
<text text-anchor="middle" x="3849" y="-99.8" font-family="Times,serif" font-size="14.00">AppComponent</text>
</g>
<!-- AppComponent&#45;&gt;AppModule -->
<g id="edge6" class="edge">
<title>AppComponent&#45;&gt;AppModule</title>
<path fill="none" stroke="black" d="M3849,-122.04C3849,-143.66 3849,-177 3849,-177 3849,-177 2361.96,-177 2361.96,-177"/>
<polygon fill="black" stroke="black" points="2361.96,-173.5 2351.96,-177 2361.96,-180.5 2361.96,-173.5"/>
</g>
<!-- ChatComponent -->
<g id="node7" class="node">
<title>ChatComponent</title>
<polygon fill="#ffffb3" stroke="black" points="3777.77,-122 3670.23,-122 3670.23,-86 3777.77,-86 3777.77,-122"/>
<text text-anchor="middle" x="3724" y="-99.8" font-family="Times,serif" font-size="14.00">ChatComponent</text>
</g>
<!-- ChatComponent&#45;&gt;AppModule -->
<g id="edge7" class="edge">
<title>ChatComponent&#45;&gt;AppModule</title>
<path fill="none" stroke="black" d="M3724,-122.28C3724,-143.32 3724,-175 3724,-175 3724,-175 2361.93,-175 2361.93,-175"/>
<polygon fill="black" stroke="black" points="2361.93,-171.5 2351.93,-175 2361.93,-178.5 2361.93,-171.5"/>
</g>
<!-- ConfirmDialogComponent -->
<g id="node8" class="node">
<title>ConfirmDialogComponent</title>
<polygon fill="#ffffb3" stroke="black" points="3652.37,-122 3485.63,-122 3485.63,-86 3652.37,-86 3652.37,-122"/>
<text text-anchor="middle" x="3569" y="-99.8" font-family="Times,serif" font-size="14.00">ConfirmDialogComponent</text>
</g>
<!-- ConfirmDialogComponent&#45;&gt;AppModule -->
<g id="edge8" class="edge">
<title>ConfirmDialogComponent&#45;&gt;AppModule</title>
<path fill="none" stroke="black" d="M3569,-122.03C3569,-142.77 3569,-174 3569,-174 3569,-174 2361.89,-174 2361.89,-174"/>
<polygon fill="black" stroke="black" points="2361.89,-170.5 2351.89,-174 2361.89,-177.5 2361.89,-170.5"/>
</g>
<!-- EditProfileComponent -->
<g id="node9" class="node">
<title>EditProfileComponent</title>
<polygon fill="#ffffb3" stroke="black" points="3467.27,-122 3324.73,-122 3324.73,-86 3467.27,-86 3467.27,-122"/>
<text text-anchor="middle" x="3396" y="-99.8" font-family="Times,serif" font-size="14.00">EditProfileComponent</text>
</g>
<!-- EditProfileComponent&#45;&gt;AppModule -->
<g id="edge9" class="edge">
<title>EditProfileComponent&#45;&gt;AppModule</title>
<path fill="none" stroke="black" d="M3396,-122.22C3396,-142.37 3396,-172 3396,-172 3396,-172 2361.91,-172 2361.91,-172"/>
<polygon fill="black" stroke="black" points="2361.91,-168.5 2351.91,-172 2361.91,-175.5 2361.91,-168.5"/>
</g>
<!-- FooterComponent -->
<g id="node10" class="node">
<title>FooterComponent</title>
<polygon fill="#ffffb3" stroke="black" points="3306.88,-122 3189.12,-122 3189.12,-86 3306.88,-86 3306.88,-122"/>
<text text-anchor="middle" x="3248" y="-99.8" font-family="Times,serif" font-size="14.00">FooterComponent</text>
</g>
<!-- FooterComponent&#45;&gt;AppModule -->
<g id="edge10" class="edge">
<title>FooterComponent&#45;&gt;AppModule</title>
<path fill="none" stroke="black" d="M3248,-122.03C3248,-141.58 3248,-170 3248,-170 3248,-170 2361.82,-170 2361.82,-170"/>
<polygon fill="black" stroke="black" points="2361.82,-166.5 2351.82,-170 2361.82,-173.5 2361.82,-166.5"/>
</g>
<!-- GamificationComponent -->
<g id="node11" class="node">
<title>GamificationComponent</title>
<polygon fill="#ffffb3" stroke="black" points="3170.7,-122 3015.3,-122 3015.3,-86 3170.7,-86 3170.7,-122"/>
<text text-anchor="middle" x="3093" y="-99.8" font-family="Times,serif" font-size="14.00">GamificationComponent</text>
</g>
<!-- GamificationComponent&#45;&gt;AppModule -->
<g id="edge11" class="edge">
<title>GamificationComponent&#45;&gt;AppModule</title>
<path fill="none" stroke="black" d="M3093,-122.11C3093,-141.34 3093,-169 3093,-169 3093,-169 2361.82,-169 2361.82,-169"/>
<polygon fill="black" stroke="black" points="2361.82,-165.5 2351.82,-169 2361.82,-172.5 2361.82,-165.5"/>
</g>
<!-- HomeComponent -->
<g id="node12" class="node">
<title>HomeComponent</title>
<polygon fill="#ffffb3" stroke="black" points="2997.55,-122 2882.45,-122 2882.45,-86 2997.55,-86 2997.55,-122"/>
<text text-anchor="middle" x="2940" y="-99.8" font-family="Times,serif" font-size="14.00">HomeComponent</text>
</g>
<!-- HomeComponent&#45;&gt;AppModule -->
<g id="edge12" class="edge">
<title>HomeComponent&#45;&gt;AppModule</title>
<path fill="none" stroke="black" d="M2940,-122.22C2940,-140.83 2940,-167 2940,-167 2940,-167 2361.82,-167 2361.82,-167"/>
<polygon fill="black" stroke="black" points="2361.82,-163.5 2351.82,-167 2361.82,-170.5 2361.82,-163.5"/>
</g>
<!-- LoadingComponent -->
<g id="node13" class="node">
<title>LoadingComponent</title>
<polygon fill="#ffffb3" stroke="black" points="2863.99,-122 2736.01,-122 2736.01,-86 2863.99,-86 2863.99,-122"/>
<text text-anchor="middle" x="2800" y="-99.8" font-family="Times,serif" font-size="14.00">LoadingComponent</text>
</g>
<!-- LoadingComponent&#45;&gt;AppModule -->
<g id="edge13" class="edge">
<title>LoadingComponent&#45;&gt;AppModule</title>
<path fill="none" stroke="black" d="M2800,-122.3C2800,-140.27 2800,-165 2800,-165 2800,-165 2361.78,-165 2361.78,-165"/>
<polygon fill="black" stroke="black" points="2361.78,-161.5 2351.78,-165 2361.78,-168.5 2361.78,-161.5"/>
</g>
<!-- MovieDetailsComponent -->
<g id="node14" class="node">
<title>MovieDetailsComponent</title>
<polygon fill="#ffffb3" stroke="black" points="2717.54,-122 2560.46,-122 2560.46,-86 2717.54,-86 2717.54,-122"/>
<text text-anchor="middle" x="2639" y="-99.8" font-family="Times,serif" font-size="14.00">MovieDetailsComponent</text>
</g>
<!-- MovieDetailsComponent&#45;&gt;AppModule -->
<g id="edge14" class="edge">
<title>MovieDetailsComponent&#45;&gt;AppModule</title>
<path fill="none" stroke="black" d="M2639,-122.02C2639,-139.37 2639,-163 2639,-163 2639,-163 2361.67,-163 2361.67,-163"/>
<polygon fill="black" stroke="black" points="2361.67,-159.5 2351.67,-163 2361.67,-166.5 2361.67,-159.5"/>
</g>
<!-- NavMenuComponent -->
<g id="node15" class="node">
<title>NavMenuComponent</title>
<polygon fill="#ffffb3" stroke="black" points="2542.81,-122 2405.19,-122 2405.19,-86 2542.81,-86 2542.81,-122"/>
<text text-anchor="middle" x="2474" y="-99.8" font-family="Times,serif" font-size="14.00">NavMenuComponent</text>
</g>
<!-- NavMenuComponent&#45;&gt;AppModule -->
<g id="edge15" class="edge">
<title>NavMenuComponent&#45;&gt;AppModule</title>
<path fill="none" stroke="black" d="M2474,-122.03C2474,-139.06 2474,-162 2474,-162 2474,-162 2361.81,-162 2361.81,-162"/>
<polygon fill="black" stroke="black" points="2361.81,-158.5 2351.81,-162 2361.81,-165.5 2361.81,-158.5"/>
</g>
<!-- NotificationsComponent -->
<g id="node16" class="node">
<title>NotificationsComponent</title>
<polygon fill="#ffffb3" stroke="black" points="2387.43,-122 2232.57,-122 2232.57,-86 2387.43,-86 2387.43,-122"/>
<text text-anchor="middle" x="2310" y="-99.8" font-family="Times,serif" font-size="14.00">NotificationsComponent</text>
</g>
<!-- NotificationsComponent&#45;&gt;AppModule -->
<g id="edge16" class="edge">
<title>NotificationsComponent&#45;&gt;AppModule</title>
<path fill="none" stroke="black" d="M2310,-122.11C2310,-122.11 2310,-140.99 2310,-140.99"/>
<polygon fill="black" stroke="black" points="2306.5,-140.99 2310,-150.99 2313.5,-140.99 2306.5,-140.99"/>
</g>
<!-- ProfileComponent -->
<g id="node17" class="node">
<title>ProfileComponent</title>
<polygon fill="#ffffb3" stroke="black" points="2214.93,-122 2095.07,-122 2095.07,-86 2214.93,-86 2214.93,-122"/>
<text text-anchor="middle" x="2155" y="-99.8" font-family="Times,serif" font-size="14.00">ProfileComponent</text>
</g>
<!-- ProfileComponent&#45;&gt;AppModule -->
<g id="edge17" class="edge">
<title>ProfileComponent&#45;&gt;AppModule</title>
<path fill="none" stroke="black" d="M2155,-122.05C2155,-136.37 2155,-154 2155,-154 2155,-154 2258.05,-154 2258.05,-154"/>
<polygon fill="black" stroke="black" points="2258.05,-157.5 2268.05,-154 2258.05,-150.5 2258.05,-157.5"/>
</g>
<!-- SearchComponent -->
<g id="node18" class="node">
<title>SearchComponent</title>
<polygon fill="#ffffb3" stroke="black" points="2077.92,-122 1958.08,-122 1958.08,-86 2077.92,-86 2077.92,-122"/>
<text text-anchor="middle" x="2018" y="-99.8" font-family="Times,serif" font-size="14.00">SearchComponent</text>
</g>
<!-- SearchComponent&#45;&gt;AppModule -->
<g id="edge18" class="edge">
<title>SearchComponent&#45;&gt;AppModule</title>
<path fill="none" stroke="black" d="M2018,-122.19C2018,-137.18 2018,-156 2018,-156 2018,-156 2258.16,-156 2258.16,-156"/>
<polygon fill="black" stroke="black" points="2258.16,-159.5 2268.16,-156 2258.16,-152.5 2258.16,-159.5"/>
</g>
<!-- SearchServiceComponent -->
<g id="node19" class="node">
<title>SearchServiceComponent</title>
<polygon fill="#ffffb3" stroke="black" points="1940.9,-122 1779.1,-122 1779.1,-86 1940.9,-86 1940.9,-122"/>
<text text-anchor="middle" x="1860" y="-99.8" font-family="Times,serif" font-size="14.00">SearchServiceComponent</text>
</g>
<!-- SearchServiceComponent&#45;&gt;AppModule -->
<g id="edge19" class="edge">
<title>SearchServiceComponent&#45;&gt;AppModule</title>
<path fill="none" stroke="black" d="M1860,-122.28C1860,-137.95 1860,-158 1860,-158 1860,-158 2258.07,-158 2258.07,-158"/>
<polygon fill="black" stroke="black" points="2258.07,-161.5 2268.07,-158 2258.07,-154.5 2258.07,-161.5"/>
</g>
<!-- SeasonDetailsComponent -->
<g id="node20" class="node">
<title>SeasonDetailsComponent</title>
<polygon fill="#ffffb3" stroke="black" points="1761.14,-122 1600.86,-122 1600.86,-86 1761.14,-86 1761.14,-122"/>
<text text-anchor="middle" x="1681" y="-99.8" font-family="Times,serif" font-size="14.00">SeasonDetailsComponent</text>
</g>
<!-- SeasonDetailsComponent&#45;&gt;AppModule -->
<g id="edge20" class="edge">
<title>SeasonDetailsComponent&#45;&gt;AppModule</title>
<path fill="none" stroke="black" d="M1681,-122.03C1681,-138.4 1681,-160 1681,-160 1681,-160 2258.24,-160 2258.24,-160"/>
<polygon fill="black" stroke="black" points="2258.24,-163.5 2268.24,-160 2258.24,-156.5 2258.24,-163.5"/>
</g>
<!-- SeasonDetailsInfoComponent -->
<g id="node21" class="node">
<title>SeasonDetailsInfoComponent</title>
<polygon fill="#ffffb3" stroke="black" points="1582.96,-122 1399.04,-122 1399.04,-86 1582.96,-86 1582.96,-122"/>
<text text-anchor="middle" x="1491" y="-99.8" font-family="Times,serif" font-size="14.00">SeasonDetailsInfoComponent</text>
</g>
<!-- SeasonDetailsInfoComponent&#45;&gt;AppModule -->
<g id="edge21" class="edge">
<title>SeasonDetailsInfoComponent&#45;&gt;AppModule</title>
<path fill="none" stroke="black" d="M1491,-122.02C1491,-139.37 1491,-163 1491,-163 1491,-163 2258.26,-163 2258.26,-163"/>
<polygon fill="black" stroke="black" points="2258.26,-166.5 2268.26,-163 2258.26,-159.5 2258.26,-166.5"/>
</g>
<!-- SeriesDetailsComponent -->
<g id="node22" class="node">
<title>SeriesDetailsComponent</title>
<polygon fill="#ffffb3" stroke="black" points="1380.69,-122 1225.31,-122 1225.31,-86 1380.69,-86 1380.69,-122"/>
<text text-anchor="middle" x="1303" y="-99.8" font-family="Times,serif" font-size="14.00">SeriesDetailsComponent</text>
</g>
<!-- SeriesDetailsComponent&#45;&gt;AppModule -->
<g id="edge22" class="edge">
<title>SeriesDetailsComponent&#45;&gt;AppModule</title>
<path fill="none" stroke="black" d="M1303,-122.3C1303,-140.27 1303,-165 1303,-165 1303,-165 2258.33,-165 2258.33,-165"/>
<polygon fill="black" stroke="black" points="2258.33,-168.5 2268.33,-165 2258.33,-161.5 2258.33,-168.5"/>
</g>
<!-- StatisticsComponent -->
<g id="node23" class="node">
<title>StatisticsComponent</title>
<polygon fill="#ffffb3" stroke="black" points="1206.89,-122 1075.11,-122 1075.11,-86 1206.89,-86 1206.89,-122"/>
<text text-anchor="middle" x="1141" y="-99.8" font-family="Times,serif" font-size="14.00">StatisticsComponent</text>
</g>
<!-- StatisticsComponent&#45;&gt;AppModule -->
<g id="edge23" class="edge">
<title>StatisticsComponent&#45;&gt;AppModule</title>
<path fill="none" stroke="black" d="M1141,-122.22C1141,-140.83 1141,-167 1141,-167 1141,-167 2258.05,-167 2258.05,-167"/>
<polygon fill="black" stroke="black" points="2258.05,-170.5 2268.05,-167 2258.05,-163.5 2258.05,-170.5"/>
</g>
<!-- AppComponent  -->
<g id="node26" class="node">
<title>AppComponent </title>
<polygon fill="#80b1d3" stroke="black" points="2364.44,-252 2255.56,-252 2255.56,-216 2364.44,-216 2364.44,-252"/>
<text text-anchor="middle" x="2310" y="-229.8" font-family="Times,serif" font-size="14.00">AppComponent </text>
</g>
<!-- AppModule&#45;&gt;AppComponent  -->
<g id="edge26" class="edge">
<title>AppModule&#45;&gt;AppComponent </title>
<path fill="none" stroke="black" stroke-dasharray="1,5" d="M2310,-187.11C2310,-187.11 2310,-205.99 2310,-205.99"/>
<polygon fill="black" stroke="black" points="2306.5,-205.99 2310,-215.99 2313.5,-205.99 2306.5,-205.99"/>
</g>
<!-- AppRoutingModule -->
<g id="node25" class="node">
<title>AppRoutingModule</title>
<polygon fill="#8dd3c7" stroke="black" points="1051.27,-122 1048.27,-126 1027.27,-126 1024.27,-122 922.73,-122 922.73,-86 1051.27,-86 1051.27,-122"/>
<text text-anchor="middle" x="987" y="-99.8" font-family="Times,serif" font-size="14.00">AppRoutingModule</text>
</g>
<!-- AppRoutingModule&#45;&gt;AppModule -->
<g id="edge24" class="edge">
<title>AppRoutingModule&#45;&gt;AppModule</title>
<path fill="none" stroke="black" d="M1008.46,-122.11C1008.46,-141.34 1008.46,-169 1008.46,-169 1008.46,-169 2258.17,-169 2258.17,-169"/>
<polygon fill="black" stroke="black" points="2258.17,-172.5 2268.17,-169 2258.17,-165.5 2258.17,-172.5"/>
</g>
<!-- AppRoutingModule&#45;&gt;AppModule -->
<g id="edge25" class="edge">
<title>AppRoutingModule&#45;&gt;AppModule</title>
<path fill="none" stroke="black" d="M965.54,-122.22C965.54,-142.37 965.54,-172 965.54,-172 965.54,-172 2258.29,-172 2258.29,-172"/>
<polygon fill="black" stroke="black" points="2258.29,-175.5 2268.29,-172 2258.29,-168.5 2258.29,-175.5"/>
</g>
<!-- ChatService -->
<g id="node27" class="node">
<title>ChatService</title>
<ellipse fill="#fdb462" stroke="black" cx="841" cy="-104" rx="58.46" ry="18"/>
<text text-anchor="middle" x="841" y="-99.8" font-family="Times,serif" font-size="14.00">ChatService</text>
</g>
<!-- ChatService&#45;&gt;AppModule -->
<g id="edge27" class="edge">
<title>ChatService&#45;&gt;AppModule</title>
<path fill="none" stroke="black" d="M841,-122.03C841,-142.77 841,-174 841,-174 841,-174 2258.01,-174 2258.01,-174"/>
<polygon fill="black" stroke="black" points="2258.01,-177.5 2268.01,-174 2258.01,-170.5 2258.01,-177.5"/>
</g>
<!-- DialogService -->
<g id="node28" class="node">
<title>DialogService</title>
<ellipse fill="#fdb462" stroke="black" cx="698" cy="-104" rx="66.05" ry="18"/>
<text text-anchor="middle" x="698" y="-99.8" font-family="Times,serif" font-size="14.00">DialogService</text>
</g>
<!-- DialogService&#45;&gt;AppModule -->
<g id="edge28" class="edge">
<title>DialogService&#45;&gt;AppModule</title>
<path fill="none" stroke="black" d="M698,-122.17C698,-143.5 698,-176 698,-176 698,-176 2258.12,-176 2258.12,-176"/>
<polygon fill="black" stroke="black" points="2258.12,-179.5 2268.12,-176 2258.12,-172.5 2258.12,-179.5"/>
</g>
<!-- JwtInterceptor -->
<g id="node29" class="node">
<title>JwtInterceptor</title>
<ellipse fill="#fdb462" stroke="black" cx="547" cy="-104" rx="66.61" ry="18"/>
<text text-anchor="middle" x="547" y="-99.8" font-family="Times,serif" font-size="14.00">JwtInterceptor</text>
</g>
<!-- JwtInterceptor&#45;&gt;AppModule -->
<g id="edge29" class="edge">
<title>JwtInterceptor&#45;&gt;AppModule</title>
<path fill="none" stroke="black" d="M547,-122.29C547,-144.21 547,-178 547,-178 547,-178 2258.16,-178 2258.16,-178"/>
<polygon fill="black" stroke="black" points="2258.16,-181.5 2268.16,-178 2258.16,-174.5 2258.16,-181.5"/>
</g>
<!-- LoadingInterceptor -->
<g id="node30" class="node">
<title>LoadingInterceptor</title>
<ellipse fill="#fdb462" stroke="black" cx="377" cy="-104" rx="85.66" ry="18"/>
<text text-anchor="middle" x="377" y="-99.8" font-family="Times,serif" font-size="14.00">LoadingInterceptor</text>
</g>
<!-- LoadingInterceptor&#45;&gt;AppModule -->
<g id="edge30" class="edge">
<title>LoadingInterceptor&#45;&gt;AppModule</title>
<path fill="none" stroke="black" d="M377,-122.25C377,-145.02 377,-181 377,-181 377,-181 2258.28,-181 2258.28,-181"/>
<polygon fill="black" stroke="black" points="2258.28,-184.5 2268.28,-181 2258.28,-177.5 2258.28,-184.5"/>
</g>
<!-- MovieApiServiceComponent -->
<g id="node31" class="node">
<title>MovieApiServiceComponent</title>
<ellipse fill="#fdb462" stroke="black" cx="149" cy="-104" rx="124.5" ry="18"/>
<text text-anchor="middle" x="149" y="-99.8" font-family="Times,serif" font-size="14.00">MovieApiServiceComponent</text>
</g>
<!-- MovieApiServiceComponent&#45;&gt;AppModule -->
<g id="edge31" class="edge">
<title>MovieApiServiceComponent&#45;&gt;AppModule</title>
<path fill="none" stroke="black" d="M107.42,-121.18C107.42,-144.95 107.42,-185 107.42,-185 107.42,-185 2257.97,-185 2257.97,-185"/>
<polygon fill="black" stroke="black" points="2257.97,-188.5 2267.97,-185 2257.97,-181.5 2257.97,-188.5"/>
</g>
<!-- MovieApiServiceComponent&#45;&gt;AppModule -->
<g id="edge32" class="edge">
<title>MovieApiServiceComponent&#45;&gt;AppModule</title>
<path fill="none" stroke="black" d="M190.58,-121.14C190.58,-144.38 190.58,-183 190.58,-183 190.58,-183 2258.14,-183 2258.14,-183"/>
<polygon fill="black" stroke="black" points="2258.14,-186.5 2268.14,-183 2258.14,-179.5 2258.14,-186.5"/>
</g>
<!-- AuthenticationButtonComponent -->
<g id="node32" class="node">
<title>AuthenticationButtonComponent</title>
<polygon fill="#ffffb3" stroke="black" points="6692.15,-122 6489.85,-122 6489.85,-86 6692.15,-86 6692.15,-122"/>
<text text-anchor="middle" x="6591" y="-99.8" font-family="Times,serif" font-size="14.00">AuthenticationButtonComponent</text>
</g>
<!-- AuthenticationModule -->
<g id="node41" class="node">
<title>AuthenticationModule</title>
<polygon fill="#8dd3c7" stroke="black" points="5895.25,-187 5892.25,-191 5871.25,-191 5868.25,-187 5752.75,-187 5752.75,-151 5895.25,-151 5895.25,-187"/>
<text text-anchor="middle" x="5824" y="-164.8" font-family="Times,serif" font-size="14.00">AuthenticationModule</text>
</g>
<!-- AuthenticationButtonComponent&#45;&gt;AuthenticationModule -->
<g id="edge33" class="edge">
<title>AuthenticationButtonComponent&#45;&gt;AuthenticationModule</title>
<path fill="none" stroke="black" d="M6557.22,-122.28C6557.22,-143.32 6557.22,-175 6557.22,-175 6557.22,-175 5905.3,-175 5905.3,-175"/>
<polygon fill="black" stroke="black" points="5905.3,-171.5 5895.3,-175 5905.3,-178.5 5905.3,-171.5"/>
</g>
<!-- AuthenticationButtonComponent&#45;&gt;AuthenticationModule -->
<g id="edge34" class="edge">
<title>AuthenticationButtonComponent&#45;&gt;AuthenticationModule</title>
<path fill="none" stroke="black" d="M6624.78,-122.25C6624.78,-145.02 6624.78,-181 6624.78,-181 6624.78,-181 5905.42,-181 5905.42,-181"/>
<polygon fill="black" stroke="black" points="5905.42,-177.5 5895.42,-181 5905.42,-184.5 5905.42,-177.5"/>
</g>
<!-- BlockedAccountComponent -->
<g id="node33" class="node">
<title>BlockedAccountComponent</title>
<polygon fill="#ffffb3" stroke="black" points="6471.92,-122 6296.08,-122 6296.08,-86 6471.92,-86 6471.92,-122"/>
<text text-anchor="middle" x="6384" y="-99.8" font-family="Times,serif" font-size="14.00">BlockedAccountComponent</text>
</g>
<!-- BlockedAccountComponent&#45;&gt;AuthenticationModule -->
<g id="edge35" class="edge">
<title>BlockedAccountComponent&#45;&gt;AuthenticationModule</title>
<path fill="none" stroke="black" d="M6384,-122.11C6384,-141.34 6384,-169 6384,-169 6384,-169 5905.49,-169 5905.49,-169"/>
<polygon fill="black" stroke="black" points="5905.49,-165.5 5895.49,-169 5905.49,-172.5 5905.49,-165.5"/>
</g>
<!-- LoginComponent -->
<g id="node34" class="node">
<title>LoginComponent</title>
<polygon fill="#ffffb3" stroke="black" points="6278.28,-122 6163.72,-122 6163.72,-86 6278.28,-86 6278.28,-122"/>
<text text-anchor="middle" x="6221" y="-99.8" font-family="Times,serif" font-size="14.00">LoginComponent</text>
</g>
<!-- LoginComponent&#45;&gt;AuthenticationModule -->
<g id="edge36" class="edge">
<title>LoginComponent&#45;&gt;AuthenticationModule</title>
<path fill="none" stroke="black" d="M6221,-122.02C6221,-139.37 6221,-163 6221,-163 6221,-163 5905.43,-163 5905.43,-163"/>
<polygon fill="black" stroke="black" points="5905.43,-159.5 5895.43,-163 5905.43,-166.5 5905.43,-159.5"/>
</g>
<!-- PendingVerificationComponent -->
<g id="node35" class="node">
<title>PendingVerificationComponent</title>
<polygon fill="#ffffb3" stroke="black" points="6145.35,-122 5950.65,-122 5950.65,-86 6145.35,-86 6145.35,-122"/>
<text text-anchor="middle" x="6048" y="-99.8" font-family="Times,serif" font-size="14.00">PendingVerificationComponent</text>
</g>
<!-- PendingVerificationComponent&#45;&gt;AuthenticationModule -->
<g id="edge37" class="edge">
<title>PendingVerificationComponent&#45;&gt;AuthenticationModule</title>
<path fill="none" stroke="black" d="M6048,-122.24C6048,-137.57 6048,-157 6048,-157 6048,-157 5905.49,-157 5905.49,-157"/>
<polygon fill="black" stroke="black" points="5905.49,-153.5 5895.49,-157 5905.49,-160.5 5905.49,-153.5"/>
</g>
<!-- RegisterWithThirdPartyComponent -->
<g id="node36" class="node">
<title>RegisterWithThirdPartyComponent</title>
<polygon fill="#ffffb3" stroke="black" points="5932.13,-122 5715.87,-122 5715.87,-86 5932.13,-86 5932.13,-122"/>
<text text-anchor="middle" x="5824" y="-99.8" font-family="Times,serif" font-size="14.00">RegisterWithThirdPartyComponent</text>
</g>
<!-- RegisterWithThirdPartyComponent&#45;&gt;AuthenticationModule -->
<g id="edge38" class="edge">
<title>RegisterWithThirdPartyComponent&#45;&gt;AuthenticationModule</title>
<path fill="none" stroke="black" d="M5824,-122.11C5824,-122.11 5824,-140.99 5824,-140.99"/>
<polygon fill="black" stroke="black" points="5820.5,-140.99 5824,-150.99 5827.5,-140.99 5820.5,-140.99"/>
</g>
<!-- RegistrationComponent -->
<g id="node37" class="node">
<title>RegistrationComponent</title>
<polygon fill="#ffffb3" stroke="black" points="5697.77,-122 5548.23,-122 5548.23,-86 5697.77,-86 5697.77,-122"/>
<text text-anchor="middle" x="5623" y="-99.8" font-family="Times,serif" font-size="14.00">RegistrationComponent</text>
</g>
<!-- RegistrationComponent&#45;&gt;AuthenticationModule -->
<g id="edge39" class="edge">
<title>RegistrationComponent&#45;&gt;AuthenticationModule</title>
<path fill="none" stroke="black" d="M5623,-122.25C5623,-136.18 5623,-153 5623,-153 5623,-153 5742.57,-153 5742.57,-153"/>
<polygon fill="black" stroke="black" points="5742.57,-156.5 5752.57,-153 5742.57,-149.5 5742.57,-156.5"/>
</g>
<!-- ResetPasswordComponent -->
<g id="node38" class="node">
<title>ResetPasswordComponent</title>
<polygon fill="#ffffb3" stroke="black" points="5530.09,-122 5363.91,-122 5363.91,-86 5530.09,-86 5530.09,-122"/>
<text text-anchor="middle" x="5447" y="-99.8" font-family="Times,serif" font-size="14.00">ResetPasswordComponent</text>
</g>
<!-- ResetPasswordComponent&#45;&gt;AuthenticationModule -->
<g id="edge40" class="edge">
<title>ResetPasswordComponent&#45;&gt;AuthenticationModule</title>
<path fill="none" stroke="black" d="M5447,-122.12C5447,-136.78 5447,-155 5447,-155 5447,-155 5742.65,-155 5742.65,-155"/>
<polygon fill="black" stroke="black" points="5742.65,-158.5 5752.65,-155 5742.65,-151.5 5742.65,-158.5"/>
</g>
<!-- SendEmailComponent -->
<g id="node39" class="node">
<title>SendEmailComponent</title>
<polygon fill="#ffffb3" stroke="black" points="5346.27,-122 5203.73,-122 5203.73,-86 5346.27,-86 5346.27,-122"/>
<text text-anchor="middle" x="5275" y="-99.8" font-family="Times,serif" font-size="14.00">SendEmailComponent</text>
</g>
<!-- SendEmailComponent&#45;&gt;AuthenticationModule -->
<g id="edge41" class="edge">
<title>SendEmailComponent&#45;&gt;AuthenticationModule</title>
<path fill="none" stroke="black" d="M5275,-122.24C5275,-137.57 5275,-157 5275,-157 5275,-157 5742.51,-157 5742.51,-157"/>
<polygon fill="black" stroke="black" points="5742.51,-160.5 5752.51,-157 5742.51,-153.5 5742.51,-160.5"/>
</g>
<!-- SuspendedAccountComponent -->
<g id="node40" class="node">
<title>SuspendedAccountComponent</title>
<polygon fill="#ffffb3" stroke="black" points="5185.92,-122 4996.08,-122 4996.08,-86 5185.92,-86 5185.92,-122"/>
<text text-anchor="middle" x="5091" y="-99.8" font-family="Times,serif" font-size="14.00">SuspendedAccountComponent</text>
</g>
<!-- SuspendedAccountComponent&#45;&gt;AuthenticationModule -->
<g id="edge42" class="edge">
<title>SuspendedAccountComponent&#45;&gt;AuthenticationModule</title>
<path fill="none" stroke="black" d="M5091,-122.28C5091,-137.95 5091,-158 5091,-158 5091,-158 5742.72,-158 5742.72,-158"/>
<polygon fill="black" stroke="black" points="5742.72,-161.5 5752.72,-158 5742.72,-154.5 5742.72,-161.5"/>
</g>
<!-- AuthenticationRoutingModule -->
<g id="node42" class="node">
<title>AuthenticationRoutingModule</title>
<polygon fill="#8dd3c7" stroke="black" points="4971.87,-122 4968.87,-126 4947.87,-126 4944.87,-122 4784.13,-122 4784.13,-86 4971.87,-86 4971.87,-122"/>
<text text-anchor="middle" x="4878" y="-99.8" font-family="Times,serif" font-size="14.00">AuthenticationRoutingModule</text>
</g>
<!-- AuthenticationRoutingModule&#45;&gt;AuthenticationModule -->
<g id="edge43" class="edge">
<title>AuthenticationRoutingModule&#45;&gt;AuthenticationModule</title>
<path fill="none" stroke="black" d="M4878,-122.03C4878,-138.4 4878,-160 4878,-160 4878,-160 5742.51,-160 5742.51,-160"/>
<polygon fill="black" stroke="black" points="5742.51,-163.5 5752.51,-160 5742.51,-156.5 5742.51,-163.5"/>
</g>
</g>
</svg>
