<?xml version="1.0" encoding="UTF-8" standalone="no"?>
<!DOCTYPE svg PUBLIC "-//W3C//DTD SVG 1.1//EN"
 "http://www.w3.org/Graphics/SVG/1.1/DTD/svg11.dtd">
<!-- Generated by graphviz version 2.47.0 (20210316.0004)
 -->
<!-- Title: dependencies Pages: 1 -->
<svg width="1964pt" height="211pt"
 viewBox="0.00 0.00 1964.00 211.00" xmlns="http://www.w3.org/2000/svg" xmlns:xlink="http://www.w3.org/1999/xlink">
<g id="graph0" class="graph" transform="scale(1 1) rotate(0) translate(4 207)">
<title>dependencies</title>
<polygon fill="white" stroke="transparent" points="-4,4 -4,-207 1960,-207 1960,4 -4,4"/>
<text text-anchor="start" x="957.01" y="-42.4" font-family="Times-12" font-weight="bold" font-size="14.00">Legend</text>
<polygon fill="#ffffb3" stroke="transparent" points="744,-10 744,-30 764,-30 764,-10 744,-10"/>
<text text-anchor="start" x="767.63" y="-15.4" font-family="Times-12" font-size="14.00"> &#160;Declarations</text>
<polygon fill="#8dd3c7" stroke="transparent" points="857,-10 857,-30 877,-30 877,-10 857,-10"/>
<text text-anchor="start" x="880.73" y="-15.4" font-family="Times-12" font-size="14.00"> &#160;Module</text>
<polygon fill="#80b1d3" stroke="transparent" points="943,-10 943,-30 963,-30 963,-10 943,-10"/>
<text text-anchor="start" x="966.78" y="-15.4" font-family="Times-12" font-size="14.00"> &#160;Bootstrap</text>
<polygon fill="#fdb462" stroke="transparent" points="1040,-10 1040,-30 1060,-30 1060,-10 1040,-10"/>
<text text-anchor="start" x="1063.67" y="-15.4" font-family="Times-12" font-size="14.00"> &#160;Providers</text>
<polygon fill="#fb8072" stroke="transparent" points="1136,-10 1136,-30 1156,-30 1156,-10 1136,-10"/>
<text text-anchor="start" x="1159.73" y="-15.4" font-family="Times-12" font-size="14.00"> &#160;Exports</text>
<g id="clust1" class="cluster">
<title>cluster_AuthenticationModule</title>
<polygon fill="none" stroke="black" stroke-dasharray="1,5" points="8,-70 8,-195 1948,-195 1948,-70 8,-70"/>
</g>
<g id="clust12" class="cluster">
<title>cluster_AuthenticationModule_imports</title>
<polygon fill="none" stroke="black" points="1736,-78 1736,-130 1940,-130 1940,-78 1736,-78"/>
</g>
<g id="clust2" class="cluster">
<title>cluster_AuthenticationModule_declarations</title>
<polygon fill="none" stroke="black" points="16,-78 16,-130 1728,-130 1728,-78 16,-78"/>
</g>
<!-- AuthenticationButtonComponent -->
<g id="node1" class="node">
<title>AuthenticationButtonComponent</title>
<polygon fill="#ffffb3" stroke="black" points="1720.15,-122 1517.85,-122 1517.85,-86 1720.15,-86 1720.15,-122"/>
<text text-anchor="middle" x="1619" y="-99.8" font-family="Times,serif" font-size="14.00">AuthenticationButtonComponent</text>
</g>
<!-- AuthenticationModule -->
<g id="node10" class="node">
<title>AuthenticationModule</title>
<polygon fill="#8dd3c7" stroke="black" points="1147.25,-187 1144.25,-191 1123.25,-191 1120.25,-187 1004.75,-187 1004.75,-151 1147.25,-151 1147.25,-187"/>
<text text-anchor="middle" x="1076" y="-164.8" font-family="Times,serif" font-size="14.00">AuthenticationModule</text>
</g>
<!-- AuthenticationButtonComponent&#45;&gt;AuthenticationModule -->
<g id="edge1" class="edge">
<title>AuthenticationButtonComponent&#45;&gt;AuthenticationModule</title>
<path fill="none" stroke="black" d="M1652.78,-122.28C1652.78,-143.32 1652.78,-175 1652.78,-175 1652.78,-175 1157.3,-175 1157.3,-175"/>
<polygon fill="black" stroke="black" points="1157.3,-171.5 1147.3,-175 1157.3,-178.5 1157.3,-171.5"/>
</g>
<!-- AuthenticationButtonComponent&#45;&gt;AuthenticationModule -->
<g id="edge2" class="edge">
<title>AuthenticationButtonComponent&#45;&gt;AuthenticationModule</title>
<path fill="none" stroke="black" d="M1585.22,-122.11C1585.22,-141.34 1585.22,-169 1585.22,-169 1585.22,-169 1157.34,-169 1157.34,-169"/>
<polygon fill="black" stroke="black" points="1157.34,-165.5 1147.34,-169 1157.34,-172.5 1157.34,-165.5"/>
</g>
<!-- BlockedAccountComponent -->
<g id="node2" class="node">
<title>BlockedAccountComponent</title>
<polygon fill="#ffffb3" stroke="black" points="1499.92,-122 1324.08,-122 1324.08,-86 1499.92,-86 1499.92,-122"/>
<text text-anchor="middle" x="1412" y="-99.8" font-family="Times,serif" font-size="14.00">BlockedAccountComponent</text>
</g>
<!-- BlockedAccountComponent&#45;&gt;AuthenticationModule -->
<g id="edge3" class="edge">
<title>BlockedAccountComponent&#45;&gt;AuthenticationModule</title>
<path fill="none" stroke="black" d="M1412,-122.02C1412,-139.37 1412,-163 1412,-163 1412,-163 1157.26,-163 1157.26,-163"/>
<polygon fill="black" stroke="black" points="1157.26,-159.5 1147.26,-163 1157.26,-166.5 1157.26,-159.5"/>
</g>
<!-- LoginComponent -->
<g id="node3" class="node">
<title>LoginComponent</title>
<polygon fill="#ffffb3" stroke="black" points="1306.28,-122 1191.72,-122 1191.72,-86 1306.28,-86 1306.28,-122"/>
<text text-anchor="middle" x="1249" y="-99.8" font-family="Times,serif" font-size="14.00">LoginComponent</text>
</g>
<!-- LoginComponent&#45;&gt;AuthenticationModule -->
<g id="edge4" class="edge">
<title>LoginComponent&#45;&gt;AuthenticationModule</title>
<path fill="none" stroke="black" d="M1249,-122.24C1249,-137.57 1249,-157 1249,-157 1249,-157 1157.36,-157 1157.36,-157"/>
<polygon fill="black" stroke="black" points="1157.36,-153.5 1147.36,-157 1157.36,-160.5 1157.36,-153.5"/>
</g>
<!-- PendingVerificationComponent -->
<g id="node4" class="node">
<title>PendingVerificationComponent</title>
<polygon fill="#ffffb3" stroke="black" points="1173.35,-122 978.65,-122 978.65,-86 1173.35,-86 1173.35,-122"/>
<text text-anchor="middle" x="1076" y="-99.8" font-family="Times,serif" font-size="14.00">PendingVerificationComponent</text>
</g>
<!-- PendingVerificationComponent&#45;&gt;AuthenticationModule -->
<g id="edge5" class="edge">
<title>PendingVerificationComponent&#45;&gt;AuthenticationModule</title>
<path fill="none" stroke="black" d="M1076,-122.11C1076,-122.11 1076,-140.99 1076,-140.99"/>
<polygon fill="black" stroke="black" points="1072.5,-140.99 1076,-150.99 1079.5,-140.99 1072.5,-140.99"/>
</g>
<!-- RegisterWithThirdPartyComponent -->
<g id="node5" class="node">
<title>RegisterWithThirdPartyComponent</title>
<polygon fill="#ffffb3" stroke="black" points="960.13,-122 743.87,-122 743.87,-86 960.13,-86 960.13,-122"/>
<text text-anchor="middle" x="852" y="-99.8" font-family="Times,serif" font-size="14.00">RegisterWithThirdPartyComponent</text>
</g>
<!-- RegisterWithThirdPartyComponent&#45;&gt;AuthenticationModule -->
<g id="edge6" class="edge">
<title>RegisterWithThirdPartyComponent&#45;&gt;AuthenticationModule</title>
<path fill="none" stroke="black" d="M852,-122.24C852,-137.57 852,-157 852,-157 852,-157 994.51,-157 994.51,-157"/>
<polygon fill="black" stroke="black" points="994.51,-160.5 1004.51,-157 994.51,-153.5 994.51,-160.5"/>
</g>
<!-- RegistrationComponent -->
<g id="node6" class="node">
<title>RegistrationComponent</title>
<polygon fill="#ffffb3" stroke="black" points="725.77,-122 576.23,-122 576.23,-86 725.77,-86 725.77,-122"/>
<text text-anchor="middle" x="651" y="-99.8" font-family="Times,serif" font-size="14.00">RegistrationComponent</text>
</g>
<!-- RegistrationComponent&#45;&gt;AuthenticationModule -->
<g id="edge7" class="edge">
<title>RegistrationComponent&#45;&gt;AuthenticationModule</title>
<path fill="none" stroke="black" d="M651,-122.02C651,-139.37 651,-163 651,-163 651,-163 994.39,-163 994.39,-163"/>
<polygon fill="black" stroke="black" points="994.39,-166.5 1004.39,-163 994.39,-159.5 994.39,-166.5"/>
</g>
<!-- ResetPasswordComponent -->
<g id="node7" class="node">
<title>ResetPasswordComponent</title>
<polygon fill="#ffffb3" stroke="black" points="558.09,-122 391.91,-122 391.91,-86 558.09,-86 558.09,-122"/>
<text text-anchor="middle" x="475" y="-99.8" font-family="Times,serif" font-size="14.00">ResetPasswordComponent</text>
</g>
<!-- ResetPasswordComponent&#45;&gt;AuthenticationModule -->
<g id="edge8" class="edge">
<title>ResetPasswordComponent&#45;&gt;AuthenticationModule</title>
<path fill="none" stroke="black" d="M475,-122.11C475,-141.34 475,-169 475,-169 475,-169 994.7,-169 994.7,-169"/>
<polygon fill="black" stroke="black" points="994.7,-172.5 1004.7,-169 994.7,-165.5 994.7,-172.5"/>
</g>
<!-- SendEmailComponent -->
<g id="node8" class="node">
<title>SendEmailComponent</title>
<polygon fill="#ffffb3" stroke="black" points="374.27,-122 231.73,-122 231.73,-86 374.27,-86 374.27,-122"/>
<text text-anchor="middle" x="303" y="-99.8" font-family="Times,serif" font-size="14.00">SendEmailComponent</text>
</g>
<!-- SendEmailComponent&#45;&gt;AuthenticationModule -->
<g id="edge9" class="edge">
<title>SendEmailComponent&#45;&gt;AuthenticationModule</title>
<path fill="none" stroke="black" d="M303,-122.28C303,-143.32 303,-175 303,-175 303,-175 994.66,-175 994.66,-175"/>
<polygon fill="black" stroke="black" points="994.66,-178.5 1004.66,-175 994.66,-171.5 994.66,-178.5"/>
</g>
<!-- SuspendedAccountComponent -->
<g id="node9" class="node">
<title>SuspendedAccountComponent</title>
<polygon fill="#ffffb3" stroke="black" points="213.92,-122 24.08,-122 24.08,-86 213.92,-86 213.92,-122"/>
<text text-anchor="middle" x="119" y="-99.8" font-family="Times,serif" font-size="14.00">SuspendedAccountComponent</text>
</g>
<!-- SuspendedAccountComponent&#45;&gt;AuthenticationModule -->
<g id="edge10" class="edge">
<title>SuspendedAccountComponent&#45;&gt;AuthenticationModule</title>
<path fill="none" stroke="black" d="M119,-122.09C119,-145.13 119,-182 119,-182 119,-182 994.46,-182 994.46,-182"/>
<polygon fill="black" stroke="black" points="994.46,-185.5 1004.46,-182 994.46,-178.5 994.46,-185.5"/>
</g>
<!-- AuthenticationRoutingModule -->
<g id="node11" class="node">
<title>AuthenticationRoutingModule</title>
<polygon fill="#8dd3c7" stroke="black" points="1931.87,-122 1928.87,-126 1907.87,-126 1904.87,-122 1744.13,-122 1744.13,-86 1931.87,-86 1931.87,-122"/>
<text text-anchor="middle" x="1838" y="-99.8" font-family="Times,serif" font-size="14.00">AuthenticationRoutingModule</text>
</g>
<!-- AuthenticationRoutingModule&#45;&gt;AuthenticationModule -->
<g id="edge11" class="edge">
<title>AuthenticationRoutingModule&#45;&gt;AuthenticationModule</title>
<path fill="none" stroke="black" d="M1838,-122.09C1838,-145.13 1838,-182 1838,-182 1838,-182 1157.34,-182 1157.34,-182"/>
<polygon fill="black" stroke="black" points="1157.34,-178.5 1147.34,-182 1157.34,-185.5 1157.34,-178.5"/>
</g>
</g>
</svg>
