<?xml version="1.0" encoding="UTF-8" standalone="no"?>
<!DOCTYPE svg PUBLIC "-//W3C//DTD SVG 1.1//EN"
 "http://www.w3.org/Graphics/SVG/1.1/DTD/svg11.dtd">
<!-- Generated by graphviz version 2.47.0 (20210316.0004)
 -->
<!-- Title: dependencies Pages: 1 -->
<svg width="4776pt" height="284pt"
 viewBox="0.00 0.00 4776.00 284.00" xmlns="http://www.w3.org/2000/svg" xmlns:xlink="http://www.w3.org/1999/xlink">
<g id="graph0" class="graph" transform="scale(1 1) rotate(0) translate(4 280)">
<title>dependencies</title>
<polygon fill="white" stroke="transparent" points="-4,4 -4,-280 4772,-280 4772,4 -4,4"/>
<text text-anchor="start" x="2363.01" y="-42.4" font-family="Times-12" font-weight="bold" font-size="14.00">Legend</text>
<polygon fill="#ffffb3" stroke="transparent" points="2150,-10 2150,-30 2170,-30 2170,-10 2150,-10"/>
<text text-anchor="start" x="2173.63" y="-15.4" font-family="Times-12" font-size="14.00"> &#160;Declarations</text>
<polygon fill="#8dd3c7" stroke="transparent" points="2263,-10 2263,-30 2283,-30 2283,-10 2263,-10"/>
<text text-anchor="start" x="2286.73" y="-15.4" font-family="Times-12" font-size="14.00"> &#160;Module</text>
<polygon fill="#80b1d3" stroke="transparent" points="2349,-10 2349,-30 2369,-30 2369,-10 2349,-10"/>
<text text-anchor="start" x="2372.78" y="-15.4" font-family="Times-12" font-size="14.00"> &#160;Bootstrap</text>
<polygon fill="#fdb462" stroke="transparent" points="2446,-10 2446,-30 2466,-30 2466,-10 2446,-10"/>
<text text-anchor="start" x="2469.67" y="-15.4" font-family="Times-12" font-size="14.00"> &#160;Providers</text>
<polygon fill="#fb8072" stroke="transparent" points="2542,-10 2542,-30 2562,-30 2562,-10 2542,-10"/>
<text text-anchor="start" x="2565.73" y="-15.4" font-family="Times-12" font-size="14.00"> &#160;Exports</text>
<g id="clust1" class="cluster">
<title>cluster_AppModule</title>
<polygon fill="none" stroke="black" stroke-dasharray="1,5" points="8,-70 8,-268 4760,-268 4760,-70 8,-70"/>
</g>
<g id="clust26" class="cluster">
<title>cluster_AppModule_imports</title>
<polygon fill="none" stroke="black" points="4608,-78 4608,-130 4752,-130 4752,-78 4608,-78"/>
</g>
<g id="clust28" class="cluster">
<title>cluster_AppModule_bootstrap</title>
<polygon fill="none" stroke="black" points="2425,-208 2425,-260 2549,-260 2549,-208 2425,-208"/>
</g>
<g id="clust2" class="cluster">
<title>cluster_AppModule_declarations</title>
<polygon fill="none" stroke="black" points="915,-78 915,-130 4600,-130 4600,-78 915,-78"/>
</g>
<g id="clust29" class="cluster">
<title>cluster_AppModule_providers</title>
<polygon fill="none" stroke="black" points="16,-78 16,-130 907,-130 907,-78 16,-78"/>
</g>
<!-- AboutUsComponent -->
<g id="node1" class="node">
<title>AboutUsComponent</title>
<polygon fill="#ffffb3" stroke="black" points="4591.88,-122 4460.12,-122 4460.12,-86 4591.88,-86 4591.88,-122"/>
<text text-anchor="middle" x="4526" y="-99.8" font-family="Times,serif" font-size="14.00">AboutUsComponent</text>
</g>
<!-- AppModule -->
<g id="node24" class="node">
<title>AppModule</title>
<polygon fill="#8dd3c7" stroke="black" points="2528.66,-187 2525.66,-191 2504.66,-191 2501.66,-187 2445.34,-187 2445.34,-151 2528.66,-151 2528.66,-187"/>
<text text-anchor="middle" x="2487" y="-164.8" font-family="Times,serif" font-size="14.00">AppModule</text>
</g>
<!-- AboutUsComponent&#45;&gt;AppModule -->
<g id="edge1" class="edge">
<title>AboutUsComponent&#45;&gt;AppModule</title>
<path fill="none" stroke="black" d="M4526,-122.25C4526,-145.02 4526,-181 4526,-181 4526,-181 2539.12,-181 2539.12,-181"/>
<polygon fill="black" stroke="black" points="2539.12,-177.5 2529.12,-181 2539.12,-184.5 2539.12,-177.5"/>
</g>
<!-- AdminComponent -->
<g id="node2" class="node">
<title>AdminComponent</title>
<polygon fill="#ffffb3" stroke="black" points="4442.22,-122 4321.78,-122 4321.78,-86 4442.22,-86 4442.22,-122"/>
<text text-anchor="middle" x="4382" y="-99.8" font-family="Times,serif" font-size="14.00">AdminComponent</text>
</g>
<!-- AdminComponent&#45;&gt;AppModule -->
<g id="edge2" class="edge">
<title>AdminComponent&#45;&gt;AppModule</title>
<path fill="none" stroke="black" d="M4382,-122.29C4382,-144.21 4382,-178 4382,-178 4382,-178 2538.79,-178 2538.79,-178"/>
<polygon fill="black" stroke="black" points="2538.79,-174.5 2528.79,-178 2538.79,-181.5 2538.79,-174.5"/>
</g>
<!-- AdminStatisticsComponent -->
<g id="node3" class="node">
<title>AdminStatisticsComponent</title>
<polygon fill="#ffffb3" stroke="black" points="4304.27,-122 4133.73,-122 4133.73,-86 4304.27,-86 4304.27,-122"/>
<text text-anchor="middle" x="4219" y="-99.8" font-family="Times,serif" font-size="14.00">AdminStatisticsComponent</text>
</g>
<!-- AdminStatisticsComponent&#45;&gt;AppModule -->
<g id="edge3" class="edge">
<title>AdminStatisticsComponent&#45;&gt;AppModule</title>
<path fill="none" stroke="black" d="M4219,-122.17C4219,-143.5 4219,-176 4219,-176 4219,-176 2538.96,-176 2538.96,-176"/>
<polygon fill="black" stroke="black" points="2538.96,-172.5 2528.96,-176 2538.96,-179.5 2538.96,-172.5"/>
</g>
<!-- AllMoviesPageComponent -->
<g id="node4" class="node">
<title>AllMoviesPageComponent</title>
<polygon fill="#ffffb3" stroke="black" points="4115.43,-122 3946.57,-122 3946.57,-86 4115.43,-86 4115.43,-122"/>
<text text-anchor="middle" x="4031" y="-99.8" font-family="Times,serif" font-size="14.00">AllMoviesPageComponent</text>
</g>
<!-- AllMoviesPageComponent&#45;&gt;AppModule -->
<g id="edge4" class="edge">
<title>AllMoviesPageComponent&#45;&gt;AppModule</title>
<path fill="none" stroke="black" d="M4031,-122.03C4031,-142.77 4031,-174 4031,-174 4031,-174 2538.7,-174 2538.7,-174"/>
<polygon fill="black" stroke="black" points="2538.7,-170.5 2528.7,-174 2538.7,-177.5 2538.7,-170.5"/>
</g>
<!-- AllSeriesPageComponent -->
<g id="node5" class="node">
<title>AllSeriesPageComponent</title>
<polygon fill="#ffffb3" stroke="black" points="3928.14,-122 3767.86,-122 3767.86,-86 3928.14,-86 3928.14,-122"/>
<text text-anchor="middle" x="3848" y="-99.8" font-family="Times,serif" font-size="14.00">AllSeriesPageComponent</text>
</g>
<!-- AllSeriesPageComponent&#45;&gt;AppModule -->
<g id="edge5" class="edge">
<title>AllSeriesPageComponent&#45;&gt;AppModule</title>
<path fill="none" stroke="black" d="M3848,-122.22C3848,-142.37 3848,-172 3848,-172 3848,-172 2538.85,-172 2538.85,-172"/>
<polygon fill="black" stroke="black" points="2538.85,-168.5 2528.85,-172 2538.85,-175.5 2538.85,-168.5"/>
</g>
<!-- AppComponent -->
<g id="node6" class="node">
<title>AppComponent</title>
<polygon fill="#ffffb3" stroke="black" points="3749.94,-122 3644.06,-122 3644.06,-86 3749.94,-86 3749.94,-122"/>
<text text-anchor="middle" x="3697" y="-99.8" font-family="Times,serif" font-size="14.00">AppComponent</text>
</g>
<!-- AppComponent&#45;&gt;AppModule -->
<g id="edge6" class="edge">
<title>AppComponent&#45;&gt;AppModule</title>
<path fill="none" stroke="black" d="M3697,-122.11C3697,-141.34 3697,-169 3697,-169 3697,-169 2539,-169 2539,-169"/>
<polygon fill="black" stroke="black" points="2539,-165.5 2529,-169 2539,-172.5 2539,-165.5"/>
</g>
<!-- ChatComponent -->
<g id="node7" class="node">
<title>ChatComponent</title>
<polygon fill="#ffffb3" stroke="black" points="3625.77,-122 3518.23,-122 3518.23,-86 3625.77,-86 3625.77,-122"/>
<text text-anchor="middle" x="3572" y="-99.8" font-family="Times,serif" font-size="14.00">ChatComponent</text>
</g>
<!-- ChatComponent&#45;&gt;AppModule -->
<g id="edge7" class="edge">
<title>ChatComponent&#45;&gt;AppModule</title>
<path fill="none" stroke="black" d="M3572,-122.22C3572,-140.83 3572,-167 3572,-167 3572,-167 2538.87,-167 2538.87,-167"/>
<polygon fill="black" stroke="black" points="2538.87,-163.5 2528.87,-167 2538.87,-170.5 2538.87,-163.5"/>
</g>
<!-- ConfirmDialogComponent -->
<g id="node8" class="node">
<title>ConfirmDialogComponent</title>
<polygon fill="#ffffb3" stroke="black" points="3500.37,-122 3333.63,-122 3333.63,-86 3500.37,-86 3500.37,-122"/>
<text text-anchor="middle" x="3417" y="-99.8" font-family="Times,serif" font-size="14.00">ConfirmDialogComponent</text>
</g>
<!-- ConfirmDialogComponent&#45;&gt;AppModule -->
<g id="edge8" class="edge">
<title>ConfirmDialogComponent&#45;&gt;AppModule</title>
<path fill="none" stroke="black" d="M3417,-122.3C3417,-140.27 3417,-165 3417,-165 3417,-165 2538.77,-165 2538.77,-165"/>
<polygon fill="black" stroke="black" points="2538.77,-161.5 2528.77,-165 2538.77,-168.5 2538.77,-161.5"/>
</g>
<!-- EditProfileComponent -->
<g id="node9" class="node">
<title>EditProfileComponent</title>
<polygon fill="#ffffb3" stroke="black" points="3315.27,-122 3172.73,-122 3172.73,-86 3315.27,-86 3315.27,-122"/>
<text text-anchor="middle" x="3244" y="-99.8" font-family="Times,serif" font-size="14.00">EditProfileComponent</text>
</g>
<!-- EditProfileComponent&#45;&gt;AppModule -->
<g id="edge9" class="edge">
<title>EditProfileComponent&#45;&gt;AppModule</title>
<path fill="none" stroke="black" d="M3244,-122.02C3244,-139.37 3244,-163 3244,-163 3244,-163 2538.78,-163 2538.78,-163"/>
<polygon fill="black" stroke="black" points="2538.78,-159.5 2528.78,-163 2538.78,-166.5 2538.78,-159.5"/>
</g>
<!-- FooterComponent -->
<g id="node10" class="node">
<title>FooterComponent</title>
<polygon fill="#ffffb3" stroke="black" points="3154.88,-122 3037.12,-122 3037.12,-86 3154.88,-86 3154.88,-122"/>
<text text-anchor="middle" x="3096" y="-99.8" font-family="Times,serif" font-size="14.00">FooterComponent</text>
</g>
<!-- FooterComponent&#45;&gt;AppModule -->
<g id="edge10" class="edge">
<title>FooterComponent&#45;&gt;AppModule</title>
<path fill="none" stroke="black" d="M3096,-122.03C3096,-138.4 3096,-160 3096,-160 3096,-160 2538.86,-160 2538.86,-160"/>
<polygon fill="black" stroke="black" points="2538.86,-156.5 2528.86,-160 2538.86,-163.5 2538.86,-156.5"/>
</g>
<!-- GamificationComponent -->
<g id="node11" class="node">
<title>GamificationComponent</title>
<polygon fill="#ffffb3" stroke="black" points="3018.7,-122 2863.3,-122 2863.3,-86 3018.7,-86 3018.7,-122"/>
<text text-anchor="middle" x="2941" y="-99.8" font-family="Times,serif" font-size="14.00">GamificationComponent</text>
</g>
<!-- GamificationComponent&#45;&gt;AppModule -->
<g id="edge11" class="edge">
<title>GamificationComponent&#45;&gt;AppModule</title>
<path fill="none" stroke="black" d="M2941,-122.28C2941,-137.95 2941,-158 2941,-158 2941,-158 2538.9,-158 2538.9,-158"/>
<polygon fill="black" stroke="black" points="2538.9,-154.5 2528.9,-158 2538.9,-161.5 2538.9,-154.5"/>
</g>
<!-- HomeComponent -->
<g id="node12" class="node">
<title>HomeComponent</title>
<polygon fill="#ffffb3" stroke="black" points="2845.55,-122 2730.45,-122 2730.45,-86 2845.55,-86 2845.55,-122"/>
<text text-anchor="middle" x="2788" y="-99.8" font-family="Times,serif" font-size="14.00">HomeComponent</text>
</g>
<!-- HomeComponent&#45;&gt;AppModule -->
<g id="edge12" class="edge">
<title>HomeComponent&#45;&gt;AppModule</title>
<path fill="none" stroke="black" d="M2788,-122.19C2788,-137.18 2788,-156 2788,-156 2788,-156 2538.85,-156 2538.85,-156"/>
<polygon fill="black" stroke="black" points="2538.85,-152.5 2528.85,-156 2538.85,-159.5 2538.85,-152.5"/>
</g>
<!-- LoadingComponent -->
<g id="node13" class="node">
<title>LoadingComponent</title>
<polygon fill="#ffffb3" stroke="black" points="2711.99,-122 2584.01,-122 2584.01,-86 2711.99,-86 2711.99,-122"/>
<text text-anchor="middle" x="2648" y="-99.8" font-family="Times,serif" font-size="14.00">LoadingComponent</text>
</g>
<!-- LoadingComponent&#45;&gt;AppModule -->
<g id="edge13" class="edge">
<title>LoadingComponent&#45;&gt;AppModule</title>
<path fill="none" stroke="black" d="M2648,-122.05C2648,-136.37 2648,-154 2648,-154 2648,-154 2538.88,-154 2538.88,-154"/>
<polygon fill="black" stroke="black" points="2538.88,-150.5 2528.88,-154 2538.88,-157.5 2538.88,-150.5"/>
</g>
<!-- MovieDetailsComponent -->
<g id="node14" class="node">
<title>MovieDetailsComponent</title>
<polygon fill="#ffffb3" stroke="black" points="2565.54,-122 2408.46,-122 2408.46,-86 2565.54,-86 2565.54,-122"/>
<text text-anchor="middle" x="2487" y="-99.8" font-family="Times,serif" font-size="14.00">MovieDetailsComponent</text>
</g>
<!-- MovieDetailsComponent&#45;&gt;AppModule -->
<g id="edge14" class="edge">
<title>MovieDetailsComponent&#45;&gt;AppModule</title>
<path fill="none" stroke="black" d="M2487,-122.11C2487,-122.11 2487,-140.99 2487,-140.99"/>
<polygon fill="black" stroke="black" points="2483.5,-140.99 2487,-150.99 2490.5,-140.99 2483.5,-140.99"/>
</g>
<!-- NavMenuComponent -->
<g id="node15" class="node">
<title>NavMenuComponent</title>
<polygon fill="#ffffb3" stroke="black" points="2390.81,-122 2253.19,-122 2253.19,-86 2390.81,-86 2390.81,-122"/>
<text text-anchor="middle" x="2322" y="-99.8" font-family="Times,serif" font-size="14.00">NavMenuComponent</text>
</g>
<!-- NavMenuComponent&#45;&gt;AppModule -->
<g id="edge15" class="edge">
<title>NavMenuComponent&#45;&gt;AppModule</title>
<path fill="none" stroke="black" d="M2322,-122.05C2322,-136.37 2322,-154 2322,-154 2322,-154 2434.94,-154 2434.94,-154"/>
<polygon fill="black" stroke="black" points="2434.94,-157.5 2444.94,-154 2434.94,-150.5 2434.94,-157.5"/>
</g>
<!-- NotificationsComponent -->
<g id="node16" class="node">
<title>NotificationsComponent</title>
<polygon fill="#ffffb3" stroke="black" points="2235.43,-122 2080.57,-122 2080.57,-86 2235.43,-86 2235.43,-122"/>
<text text-anchor="middle" x="2158" y="-99.8" font-family="Times,serif" font-size="14.00">NotificationsComponent</text>
</g>
<!-- NotificationsComponent&#45;&gt;AppModule -->
<g id="edge16" class="edge">
<title>NotificationsComponent&#45;&gt;AppModule</title>
<path fill="none" stroke="black" d="M2158,-122.19C2158,-137.18 2158,-156 2158,-156 2158,-156 2435.33,-156 2435.33,-156"/>
<polygon fill="black" stroke="black" points="2435.33,-159.5 2445.33,-156 2435.33,-152.5 2435.33,-159.5"/>
</g>
<!-- ProfileComponent -->
<g id="node17" class="node">
<title>ProfileComponent</title>
<polygon fill="#ffffb3" stroke="black" points="2062.93,-122 1943.07,-122 1943.07,-86 2062.93,-86 2062.93,-122"/>
<text text-anchor="middle" x="2003" y="-99.8" font-family="Times,serif" font-size="14.00">ProfileComponent</text>
</g>
<!-- ProfileComponent&#45;&gt;AppModule -->
<g id="edge17" class="edge">
<title>ProfileComponent&#45;&gt;AppModule</title>
<path fill="none" stroke="black" d="M2003,-122.28C2003,-137.95 2003,-158 2003,-158 2003,-158 2435.32,-158 2435.32,-158"/>
<polygon fill="black" stroke="black" points="2435.32,-161.5 2445.32,-158 2435.32,-154.5 2435.32,-161.5"/>
</g>
<!-- SearchComponent -->
<g id="node18" class="node">
<title>SearchComponent</title>
<polygon fill="#ffffb3" stroke="black" points="1925.92,-122 1806.08,-122 1806.08,-86 1925.92,-86 1925.92,-122"/>
<text text-anchor="middle" x="1866" y="-99.8" font-family="Times,serif" font-size="14.00">SearchComponent</text>
</g>
<!-- SearchComponent&#45;&gt;AppModule -->
<g id="edge18" class="edge">
<title>SearchComponent&#45;&gt;AppModule</title>
<path fill="none" stroke="black" d="M1866,-122.03C1866,-138.4 1866,-160 1866,-160 1866,-160 2435.29,-160 2435.29,-160"/>
<polygon fill="black" stroke="black" points="2435.29,-163.5 2445.29,-160 2435.29,-156.5 2435.29,-163.5"/>
</g>
<!-- SearchServiceComponent -->
<g id="node19" class="node">
<title>SearchServiceComponent</title>
<polygon fill="#ffffb3" stroke="black" points="1788.9,-122 1627.1,-122 1627.1,-86 1788.9,-86 1788.9,-122"/>
<text text-anchor="middle" x="1708" y="-99.8" font-family="Times,serif" font-size="14.00">SearchServiceComponent</text>
</g>
<!-- SearchServiceComponent&#45;&gt;AppModule -->
<g id="edge19" class="edge">
<title>SearchServiceComponent&#45;&gt;AppModule</title>
<path fill="none" stroke="black" d="M1708,-122.02C1708,-139.37 1708,-163 1708,-163 1708,-163 2435.12,-163 2435.12,-163"/>
<polygon fill="black" stroke="black" points="2435.12,-166.5 2445.12,-163 2435.12,-159.5 2435.12,-166.5"/>
</g>
<!-- SeasonDetailsComponent -->
<g id="node20" class="node">
<title>SeasonDetailsComponent</title>
<polygon fill="#ffffb3" stroke="black" points="1609.14,-122 1448.86,-122 1448.86,-86 1609.14,-86 1609.14,-122"/>
<text text-anchor="middle" x="1529" y="-99.8" font-family="Times,serif" font-size="14.00">SeasonDetailsComponent</text>
</g>
<!-- SeasonDetailsComponent&#45;&gt;AppModule -->
<g id="edge20" class="edge">
<title>SeasonDetailsComponent&#45;&gt;AppModule</title>
<path fill="none" stroke="black" d="M1529,-122.3C1529,-140.27 1529,-165 1529,-165 1529,-165 2435.22,-165 2435.22,-165"/>
<polygon fill="black" stroke="black" points="2435.22,-168.5 2445.22,-165 2435.22,-161.5 2435.22,-168.5"/>
</g>
<!-- SeasonDetailsInfoComponent -->
<g id="node21" class="node">
<title>SeasonDetailsInfoComponent</title>
<polygon fill="#ffffb3" stroke="black" points="1430.96,-122 1247.04,-122 1247.04,-86 1430.96,-86 1430.96,-122"/>
<text text-anchor="middle" x="1339" y="-99.8" font-family="Times,serif" font-size="14.00">SeasonDetailsInfoComponent</text>
</g>
<!-- SeasonDetailsInfoComponent&#45;&gt;AppModule -->
<g id="edge21" class="edge">
<title>SeasonDetailsInfoComponent&#45;&gt;AppModule</title>
<path fill="none" stroke="black" d="M1339,-122.22C1339,-140.83 1339,-167 1339,-167 1339,-167 2435.12,-167 2435.12,-167"/>
<polygon fill="black" stroke="black" points="2435.12,-170.5 2445.12,-167 2435.12,-163.5 2435.12,-170.5"/>
</g>
<!-- SeriesDetailsComponent -->
<g id="node22" class="node">
<title>SeriesDetailsComponent</title>
<polygon fill="#ffffb3" stroke="black" points="1228.69,-122 1073.31,-122 1073.31,-86 1228.69,-86 1228.69,-122"/>
<text text-anchor="middle" x="1151" y="-99.8" font-family="Times,serif" font-size="14.00">SeriesDetailsComponent</text>
</g>
<!-- SeriesDetailsComponent&#45;&gt;AppModule -->
<g id="edge22" class="edge">
<title>SeriesDetailsComponent&#45;&gt;AppModule</title>
<path fill="none" stroke="black" d="M1151,-122.11C1151,-141.34 1151,-169 1151,-169 1151,-169 2435.18,-169 2435.18,-169"/>
<polygon fill="black" stroke="black" points="2435.18,-172.5 2445.18,-169 2435.18,-165.5 2435.18,-172.5"/>
</g>
<!-- StatisticsComponent -->
<g id="node23" class="node">
<title>StatisticsComponent</title>
<polygon fill="#ffffb3" stroke="black" points="1054.89,-122 923.11,-122 923.11,-86 1054.89,-86 1054.89,-122"/>
<text text-anchor="middle" x="989" y="-99.8" font-family="Times,serif" font-size="14.00">StatisticsComponent</text>
</g>
<!-- StatisticsComponent&#45;&gt;AppModule -->
<g id="edge23" class="edge">
<title>StatisticsComponent&#45;&gt;AppModule</title>
<path fill="none" stroke="black" d="M989,-122.22C989,-142.37 989,-172 989,-172 989,-172 2434.98,-172 2434.98,-172"/>
<polygon fill="black" stroke="black" points="2434.98,-175.5 2444.98,-172 2434.98,-168.5 2434.98,-175.5"/>
</g>
<!-- AppComponent  -->
<g id="node26" class="node">
<title>AppComponent </title>
<polygon fill="#80b1d3" stroke="black" points="2541.44,-252 2432.56,-252 2432.56,-216 2541.44,-216 2541.44,-252"/>
<text text-anchor="middle" x="2487" y="-229.8" font-family="Times,serif" font-size="14.00">AppComponent </text>
</g>
<!-- AppModule&#45;&gt;AppComponent  -->
<g id="edge26" class="edge">
<title>AppModule&#45;&gt;AppComponent </title>
<path fill="none" stroke="black" stroke-dasharray="1,5" d="M2487,-187.11C2487,-187.11 2487,-205.99 2487,-205.99"/>
<polygon fill="black" stroke="black" points="2483.5,-205.99 2487,-215.99 2490.5,-205.99 2483.5,-205.99"/>
</g>
<!-- AppRoutingModule -->
<g id="node25" class="node">
<title>AppRoutingModule</title>
<polygon fill="#8dd3c7" stroke="black" points="4744.27,-122 4741.27,-126 4720.27,-126 4717.27,-122 4615.73,-122 4615.73,-86 4744.27,-86 4744.27,-122"/>
<text text-anchor="middle" x="4680" y="-99.8" font-family="Times,serif" font-size="14.00">AppRoutingModule</text>
</g>
<!-- AppRoutingModule&#45;&gt;AppModule -->
<g id="edge24" class="edge">
<title>AppRoutingModule&#45;&gt;AppModule</title>
<path fill="none" stroke="black" d="M4658.54,-122.32C4658.54,-145.66 4658.54,-183 4658.54,-183 4658.54,-183 2538.92,-183 2538.92,-183"/>
<polygon fill="black" stroke="black" points="2538.92,-179.5 2528.92,-183 2538.92,-186.5 2538.92,-179.5"/>
</g>
<!-- AppRoutingModule&#45;&gt;AppModule -->
<g id="edge25" class="edge">
<title>AppRoutingModule&#45;&gt;AppModule</title>
<path fill="none" stroke="black" d="M4701.46,-122.38C4701.46,-146.28 4701.46,-185 4701.46,-185 4701.46,-185 2538.77,-185 2538.77,-185"/>
<polygon fill="black" stroke="black" points="2538.77,-181.5 2528.77,-185 2538.77,-188.5 2538.77,-181.5"/>
</g>
<!-- ChatService -->
<g id="node27" class="node">
<title>ChatService</title>
<ellipse fill="#fdb462" stroke="black" cx="841" cy="-104" rx="58.46" ry="18"/>
<text text-anchor="middle" x="841" y="-99.8" font-family="Times,serif" font-size="14.00">ChatService</text>
</g>
<!-- ChatService&#45;&gt;AppModule -->
<g id="edge27" class="edge">
<title>ChatService&#45;&gt;AppModule</title>
<path fill="none" stroke="black" d="M841,-122.03C841,-142.77 841,-174 841,-174 841,-174 2435.07,-174 2435.07,-174"/>
<polygon fill="black" stroke="black" points="2435.07,-177.5 2445.07,-174 2435.07,-170.5 2435.07,-177.5"/>
</g>
<!-- DialogService -->
<g id="node28" class="node">
<title>DialogService</title>
<ellipse fill="#fdb462" stroke="black" cx="698" cy="-104" rx="66.05" ry="18"/>
<text text-anchor="middle" x="698" y="-99.8" font-family="Times,serif" font-size="14.00">DialogService</text>
</g>
<!-- DialogService&#45;&gt;AppModule -->
<g id="edge28" class="edge">
<title>DialogService&#45;&gt;AppModule</title>
<path fill="none" stroke="black" d="M698,-122.17C698,-143.5 698,-176 698,-176 698,-176 2434.98,-176 2434.98,-176"/>
<polygon fill="black" stroke="black" points="2434.98,-179.5 2444.98,-176 2434.98,-172.5 2434.98,-179.5"/>
</g>
<!-- JwtInterceptor -->
<g id="node29" class="node">
<title>JwtInterceptor</title>
<ellipse fill="#fdb462" stroke="black" cx="547" cy="-104" rx="66.61" ry="18"/>
<text text-anchor="middle" x="547" y="-99.8" font-family="Times,serif" font-size="14.00">JwtInterceptor</text>
</g>
<!-- JwtInterceptor&#45;&gt;AppModule -->
<g id="edge29" class="edge">
<title>JwtInterceptor&#45;&gt;AppModule</title>
<path fill="none" stroke="black" d="M547,-122.29C547,-144.21 547,-178 547,-178 547,-178 2435.13,-178 2435.13,-178"/>
<polygon fill="black" stroke="black" points="2435.13,-181.5 2445.13,-178 2435.13,-174.5 2435.13,-181.5"/>
</g>
<!-- LoadingInterceptor -->
<g id="node30" class="node">
<title>LoadingInterceptor</title>
<ellipse fill="#fdb462" stroke="black" cx="377" cy="-104" rx="85.66" ry="18"/>
<text text-anchor="middle" x="377" y="-99.8" font-family="Times,serif" font-size="14.00">LoadingInterceptor</text>
</g>
<!-- LoadingInterceptor&#45;&gt;AppModule -->
<g id="edge30" class="edge">
<title>LoadingInterceptor&#45;&gt;AppModule</title>
<path fill="none" stroke="black" d="M377,-122.25C377,-145.02 377,-181 377,-181 377,-181 2435.33,-181 2435.33,-181"/>
<polygon fill="black" stroke="black" points="2435.33,-184.5 2445.33,-181 2435.33,-177.5 2435.33,-184.5"/>
</g>
<!-- MovieApiServiceComponent -->
<g id="node31" class="node">
<title>MovieApiServiceComponent</title>
<ellipse fill="#fdb462" stroke="black" cx="149" cy="-104" rx="124.5" ry="18"/>
<text text-anchor="middle" x="149" y="-99.8" font-family="Times,serif" font-size="14.00">MovieApiServiceComponent</text>
</g>
<!-- MovieApiServiceComponent&#45;&gt;AppModule -->
<g id="edge31" class="edge">
<title>MovieApiServiceComponent&#45;&gt;AppModule</title>
<path fill="none" stroke="black" d="M190.58,-121.14C190.58,-144.38 190.58,-183 190.58,-183 190.58,-183 2435.18,-183 2435.18,-183"/>
<polygon fill="black" stroke="black" points="2435.18,-186.5 2445.18,-183 2435.18,-179.5 2435.18,-186.5"/>
</g>
<!-- MovieApiServiceComponent&#45;&gt;AppModule -->
<g id="edge32" class="edge">
<title>MovieApiServiceComponent&#45;&gt;AppModule</title>
<path fill="none" stroke="black" d="M107.42,-121.18C107.42,-144.95 107.42,-185 107.42,-185 107.42,-185 2435.19,-185 2435.19,-185"/>
<polygon fill="black" stroke="black" points="2435.19,-188.5 2445.19,-185 2435.19,-181.5 2435.19,-188.5"/>
</g>
</g>
</svg>
